<svg xmlns="http://www.w3.org/2000/svg" width="1280" height="720" viewBox="0 0 1280 720" role="img" aria-labelledby="title desc">
  <title id="title">Veri sızıntısı temsili siber görsel</title>
  <desc id="desc">Veri kasası, akış çizgileri ve sızan kayıt noktaları.</desc>
  <defs>
    <linearGradient id="bg" x1="0" y1="0" x2="1" y2="1">
      <stop stop-color="#031322"/>
      <stop offset=".5" stop-color="#082f49"/>
      <stop offset="1" stop-color="#020617"/>
    </linearGradient>
    <radialGradient id="glow" cx=".58" cy=".44" r=".55">
      <stop stop-color="#38bdf8" stop-opacity=".36"/>
      <stop offset=".55" stop-color="#a78bfa" stop-opacity=".14"/>
      <stop offset="1" stop-color="#020617" stop-opacity="0"/>
    </radialGradient>
  </defs>
  <rect width="1280" height="720" fill="url(#bg)"/>
  <rect width="1280" height="720" fill="url(#glow)"/>
  <g stroke="#7dd3fc" stroke-opacity=".16">
    <path d="M0 160h1280M0 260h1280M0 360h1280M0 460h1280M0 560h1280"/>
    <path d="M180 0v720M330 0v720M480 0v720M630 0v720M780 0v720M930 0v720M1080 0v720"/>
  </g>
  <g transform="translate(470 130)">
    <rect width="340" height="420" rx="34" fill="#020617" fill-opacity=".72" stroke="#7dd3fc" stroke-opacity=".42" stroke-width="6"/>
    <rect x="62" y="74" width="216" height="38" rx="19" fill="#38bdf8" fill-opacity=".23"/>
    <rect x="62" y="154" width="216" height="38" rx="19" fill="#38bdf8" fill-opacity=".18"/>
    <rect x="62" y="234" width="216" height="38" rx="19" fill="#38bdf8" fill-opacity=".14"/>
    <circle cx="170" cy="344" r="44" fill="none" stroke="#c4b5fd" stroke-width="10"/>
    <path d="M170 300v88M126 344h88" stroke="#c4b5fd" stroke-width="10"/>
  </g>
  <g fill="#7dd3fc">
    <circle cx="324" cy="210" r="8"/>
    <circle cx="376" cy="294" r="6" opacity=".65"/>
    <circle cx="902" cy="240" r="9"/>
    <circle cx="954" cy="408" r="7" opacity=".72"/>
    <circle cx="832" cy="560" r="5" opacity=".6"/>
  </g>
  <path d="M338 210c84 66 126 82 178 96M902 240c-65 42-96 72-130 124M954 408c-92 36-122 66-158 112" fill="none" stroke="#7dd3fc" stroke-opacity=".42" stroke-width="3"/>
  <rect x="88" y="78" width="270" height="54" rx="14" fill="#061826" stroke="#7dd3fc" stroke-opacity=".32"/>
  <text x="116" y="113" fill="#bae6fd" font-family="Arial, sans-serif" font-size="22" font-weight="700" letter-spacing="4">DATA RISK</text>
</svg>
