<svg xmlns="http://www.w3.org/2000/svg" width="1280" height="720" viewBox="0 0 1280 720" role="img" aria-labelledby="title desc">
  <title id="title">Genel siber haber temsili görseli</title>
  <desc id="desc">Koyu siber güvenlik arka planı, ağ düğümleri ve tarama halkaları.</desc>
  <defs>
    <linearGradient id="bg" x1="0" y1="0" x2="1" y2="1">
      <stop stop-color="#020617"/>
      <stop offset=".48" stop-color="#082f49"/>
      <stop offset="1" stop-color="#022c22"/>
    </linearGradient>
    <radialGradient id="glow" cx=".64" cy=".44" r=".55">
      <stop stop-color="#22d3ee" stop-opacity=".36"/>
      <stop offset=".48" stop-color="#34d399" stop-opacity=".15"/>
      <stop offset="1" stop-color="#020617" stop-opacity="0"/>
    </radialGradient>
    <pattern id="grid" width="46" height="46" patternUnits="userSpaceOnUse">
      <path d="M46 0H0v46" fill="none" stroke="#22d3ee" stroke-opacity=".1"/>
    </pattern>
  </defs>
  <rect width="1280" height="720" fill="url(#bg)"/>
  <rect width="1280" height="720" fill="url(#grid)"/>
  <rect width="1280" height="720" fill="url(#glow)"/>
  <g fill="none" stroke="#67e8f9" stroke-linecap="round">
    <circle cx="720" cy="360" r="178" stroke-opacity=".2"/>
    <circle cx="720" cy="360" r="108" stroke-opacity=".32"/>
    <circle cx="720" cy="360" r="36" stroke-opacity=".55" stroke-width="8"/>
    <path d="M238 230h250M238 326h330M238 422h260" stroke-width="5" stroke-opacity=".34"/>
    <path d="M894 220h140M894 300h206M894 380h158M894 460h188" stroke-width="5" stroke-opacity=".34"/>
  </g>
  <g fill="#22d3ee">
    <circle cx="518" cy="230" r="8"/>
    <circle cx="598" cy="326" r="8"/>
    <circle cx="528" cy="422" r="8"/>
    <circle cx="870" cy="220" r="8"/>
    <circle cx="870" cy="300" r="8"/>
    <circle cx="870" cy="380" r="8"/>
    <circle cx="870" cy="460" r="8"/>
  </g>
  <rect x="88" y="78" width="280" height="54" rx="14" fill="#061826" stroke="#22d3ee" stroke-opacity=".32"/>
  <text x="116" y="113" fill="#a5f3fc" font-family="Arial, sans-serif" font-size="22" font-weight="700" letter-spacing="4">CYBER NEWS</text>
</svg>
