<svg xmlns="http://www.w3.org/2000/svg" width="1280" height="720" viewBox="0 0 1280 720" role="img" aria-labelledby="title desc">
  <title id="title">Oltalama temsili siber görsel</title>
  <desc id="desc">Koyu zeminde kanca, bağlantı ağı ve güvenlik tarama halkaları.</desc>
  <defs>
    <linearGradient id="bg" x1="0" y1="0" x2="1" y2="1">
      <stop stop-color="#031827"/>
      <stop offset=".48" stop-color="#062238"/>
      <stop offset="1" stop-color="#020617"/>
    </linearGradient>
    <radialGradient id="glow" cx=".72" cy=".42" r=".52">
      <stop stop-color="#22d3ee" stop-opacity=".48"/>
      <stop offset=".48" stop-color="#0f766e" stop-opacity=".16"/>
      <stop offset="1" stop-color="#020617" stop-opacity="0"/>
    </radialGradient>
    <pattern id="grid" width="44" height="44" patternUnits="userSpaceOnUse">
      <path d="M44 0H0v44" fill="none" stroke="#22d3ee" stroke-opacity=".12"/>
    </pattern>
  </defs>
  <rect width="1280" height="720" fill="url(#bg)"/>
  <rect width="1280" height="720" fill="url(#grid)"/>
  <rect width="1280" height="720" fill="url(#glow)"/>
  <g fill="none" stroke="#67e8f9" stroke-linecap="round" stroke-linejoin="round">
    <circle cx="805" cy="340" r="170" stroke-opacity=".2"/>
    <circle cx="805" cy="340" r="116" stroke-opacity=".32"/>
    <path d="M748 253c74-52 169 4 160 94-7 72-72 111-129 89-34-13-49-44-37-72 11-27 43-37 69-25 20 9 31 29 24 49" stroke-width="22" stroke-opacity=".92"/>
    <path d="M729 492c45-9 82-36 102-74" stroke-width="18" stroke-opacity=".88"/>
    <path d="M485 214h150M485 314h210M485 414h154" stroke-width="4" stroke-opacity=".6"/>
    <path d="M310 214h70M310 314h94M310 414h58" stroke-width="4" stroke-opacity=".35"/>
  </g>
  <g fill="#22d3ee">
    <circle cx="458" cy="214" r="8"/>
    <circle cx="458" cy="314" r="8"/>
    <circle cx="458" cy="414" r="8"/>
    <circle cx="1040" cy="220" r="5" opacity=".7"/>
    <circle cx="1095" cy="312" r="4" opacity=".55"/>
    <circle cx="1010" cy="462" r="6" opacity=".65"/>
  </g>
  <rect x="88" y="78" width="250" height="54" rx="14" fill="#061826" stroke="#22d3ee" stroke-opacity=".28"/>
  <text x="116" y="113" fill="#a5f3fc" font-family="Arial, sans-serif" font-size="22" font-weight="700" letter-spacing="4">PHISHING</text>
</svg>
